<?xml version="1.0" encoding="UTF-8"?>
<!DOCTYPE svg PUBLIC "-//W3C//DTD SVG 1.1//EN" "http://www.w3.org/Graphics/SVG/1.1/DTD/svg11.dtd">
<!-- Creator: CorelDRAW X7 -->
<svg xmlns="http://www.w3.org/2000/svg" xml:space="preserve" width="23px" height="25px" version="1.1" style="shape-rendering:geometricPrecision; text-rendering:geometricPrecision; image-rendering:optimizeQuality; fill-rule:evenodd; clip-rule:evenodd"
viewBox="0 0 23 25"
 xmlns:xlink="http://www.w3.org/1999/xlink">
 <defs>
  <style type="text/css">
   <![CDATA[
    .fil0 {fill:#778698}
   ]]>
  </style>
 </defs>
 <g id="Vrstva_x0020_2">
  <metadata id="CorelCorpID_0Corel-Layer"/>
  <g id="_966418208">
   <path class="fil0" d="M20 9c0,0 -1,-3 -4,-3 -3,0 -3,2 -4,2 -2,0 -2,-2 -4,-2 -2,0 -6,2 -6,8 0,5 4,10 6,10 2,0 3,-1 4,-1 2,0 3,1 4,1 2,0 5,-5 5,-6 0,0 -3,-1 -3,-5 0,-3 2,-4 2,-4z"/>
   <path class="fil0" d="M16 1c0,0 0,5 -5,5 0,0 0,-4 5,-5z"/>
  </g>
 </g>
</svg>
