<?xml version="1.0" encoding="utf-8"?>
<!-- Generator: Adobe Illustrator 15.0.2, SVG Export Plug-In  -->
<!DOCTYPE svg PUBLIC "-//W3C//DTD SVG 1.1//EN" "http://www.w3.org/Graphics/SVG/1.1/DTD/svg11.dtd" [
	<!ENTITY ns_flows "http://ns.adobe.com/Flows/1.0/">
]>
<svg version="1.1"
	 xmlns="http://www.w3.org/2000/svg" xmlns:xlink="http://www.w3.org/1999/xlink" xmlns:a="http://ns.adobe.com/AdobeSVGViewerExtensions/3.0/"
	 x="0px" y="0px" width="30px" height="30px" viewBox="0 0 30 30" enable-background="new 0 0 30 30" xml:space="preserve">
<defs>
</defs>
<g>
	<defs>
		<rect id="SVGID_1_" width="30" height="30"/>
	</defs>
	<clipPath id="SVGID_2_">
		<use xlink:href="#SVGID_1_"  overflow="visible"/>
	</clipPath>
	<path clip-path="url(#SVGID_2_)" fill-rule="evenodd" clip-rule="evenodd" fill="#B6BFC7" d="M30,15c0,8.284-6.716,15-15,15
		S0,23.284,0,15S6.716,0,15,0S30,6.716,30,15"/>
	<path clip-path="url(#SVGID_2_)" fill-rule="evenodd" clip-rule="evenodd" fill="#778899" d="M10.851,23.333
		c-0.176,0.445-0.12,1.023-1.015,1.596c-0.46,0.294-2.349,0.983-4.159,1.809C8.238,28.774,11.474,30,15,30
		c3.503,0,6.718-1.21,9.271-3.223c-1.107-0.604-2.095-1.082-2.524-1.227c-1.157-0.391-1.402-0.28-1.609-1.076
		s-0.049-1.144-0.883-1.856c-0.172-0.243-0.169-0.537,0.074-0.89c0.243-0.352,0.82-1.875,0.991-2.215
		c0.17-0.341,0.646-0.515,0.646-0.515s0.479-1.365,0.479-1.919s0.002-2.284,0.132-2.748c0.129-0.463,0.085-1.215,0.129-1.857
		c0.045-0.643-0.164-0.935-0.281-1.402c-0.117-0.466-0.133-1.081-0.133-1.294s-0.317-0.385-0.317-0.385l0.085-0.461
		c0,0-0.703-0.402-1.209-0.402c0,0-0.412-1.078-1.432-1.544c-0.35,0.389-0.308,0.474-0.308,0.474s-1.332-0.975-2.662-0.975
		c-1.33,0-1.841,0.207-1.841,0.207l-0.129,0.269c0,0-2.227,0.153-3.029,1.616c-0.802,1.463-1.625,2.631-1.536,4.56
		c0.089,1.929,0.331,2.379,0.331,2.379s-0.299,0.579-0.049,1.579c0.249,0.999,0.574,2.184,0.766,2.175
		c0.193-0.009,0.624,0.992,0.624,0.992s0.428,0.896,0.685,1.182c0.258,0.287,0.354,0.889,0.112,1.217
		C11.138,22.989,11.027,22.887,10.851,23.333"/>
</g>
</svg>
