<?xml version="1.0" encoding="utf-8"?>
<!-- Generator: Adobe Illustrator 15.0.2, SVG Export Plug-In  -->
<!DOCTYPE svg PUBLIC "-//W3C//DTD SVG 1.1//EN" "http://www.w3.org/Graphics/SVG/1.1/DTD/svg11.dtd" [
	<!ENTITY ns_flows "http://ns.adobe.com/Flows/1.0/">
]>
<svg version="1.1"
	 xmlns="http://www.w3.org/2000/svg" xmlns:xlink="http://www.w3.org/1999/xlink" xmlns:a="http://ns.adobe.com/AdobeSVGViewerExtensions/3.0/"
	 x="0px" y="0px" width="49px" height="44px" viewBox="0 0 49 44" enable-background="new 0 0 49 44" xml:space="preserve">
<defs>
</defs>
<circle fill="none" stroke="#002664" stroke-width="3" stroke-linecap="round" stroke-linejoin="round" stroke-miterlimit="10" cx="16.939" cy="6.633" r="5.133"/>
<circle fill="none" stroke="#002664" stroke-width="3" stroke-linecap="round" stroke-linejoin="round" stroke-miterlimit="10" cx="34.904" cy="6.653" r="5.133"/>
<circle fill="none" stroke="#002664" stroke-width="3" stroke-linecap="round" stroke-linejoin="round" stroke-miterlimit="10" cx="6.656" cy="22.304" r="5.133"/>
<circle fill="none" stroke="#002664" stroke-width="3" stroke-linecap="round" stroke-linejoin="round" stroke-miterlimit="10" cx="24.621" cy="22.325" r="5.133"/>
<circle fill="none" stroke="#002664" stroke-width="3" stroke-linecap="round" stroke-linejoin="round" stroke-miterlimit="10" cx="42.586" cy="22.345" r="5.133"/>
<path fill="none" stroke="#002664" stroke-width="3" stroke-linecap="round" stroke-linejoin="round" stroke-miterlimit="10" d="
	M1.5,42.83l0.006-5.133c0.003-3.151,1.986-5.131,5.138-5.127c3.153,0.003,5.132,2.585,5.127,5.737l-0.005,4.534"/>
<path fill="none" stroke="#002664" stroke-width="3" stroke-linecap="round" stroke-linejoin="round" stroke-miterlimit="10" d="
	M19.465,42.851l0.006-5.133c0.004-3.152,1.986-5.131,5.139-5.127c3.152,0.003,5.131,2.585,5.127,5.736l-0.006,4.534"/>
<path fill="none" stroke="#002664" stroke-width="3" stroke-linecap="round" stroke-linejoin="round" stroke-miterlimit="10" d="
	M37.431,42.871l0.006-5.134c0.003-3.151,1.985-5.131,5.138-5.127c3.153,0.003,5.131,2.585,5.127,5.737l-0.005,4.534"/>
</svg>
