<?xml version="1.0" encoding="utf-8"?>
<!-- Generator: Adobe Illustrator 15.0.2, SVG Export Plug-In  -->
<!DOCTYPE svg PUBLIC "-//W3C//DTD SVG 1.1//EN" "http://www.w3.org/Graphics/SVG/1.1/DTD/svg11.dtd" [
	<!ENTITY ns_flows "http://ns.adobe.com/Flows/1.0/">
]>
<svg version="1.1"
	 xmlns="http://www.w3.org/2000/svg" xmlns:xlink="http://www.w3.org/1999/xlink" xmlns:a="http://ns.adobe.com/AdobeSVGViewerExtensions/3.0/"
	 x="0px" y="0px" width="60px" height="46px" viewBox="0 0 60 46" enable-background="new 0 0 60 46" xml:space="preserve">
<defs>
</defs>
<circle fill="none" stroke="#002664" stroke-width="3" stroke-linecap="round" stroke-linejoin="round" stroke-miterlimit="10" cx="11.853" cy="27.643" r="10.353"/>
<path fill="none" stroke="#002664" stroke-width="3" stroke-linecap="round" stroke-linejoin="round" stroke-miterlimit="10" d="
	M41.601,19.792c1.809-1.537,4.152-2.464,6.711-2.461c5.719,0.007,10.349,4.646,10.343,10.364c-0.004,2.932-1.226,5.577-3.187,7.458"
	/>
<line fill="none" stroke="#002664" stroke-width="3" stroke-linecap="round" stroke-linejoin="round" stroke-miterlimit="10" x1="25.204" y1="17.975" x2="20.374" y2="9.826"/>
<line fill="none" stroke="#002664" stroke-width="3" stroke-linecap="round" stroke-linejoin="round" stroke-miterlimit="10" x1="37.294" y1="16.701" x2="42.368" y2="8.463"/>
<line fill="none" stroke="#002664" stroke-width="3" stroke-linecap="round" stroke-linejoin="round" stroke-miterlimit="10" x1="20.554" y1="8.875" x2="40.324" y2="11.867"/>
<line fill="none" stroke="#002664" stroke-width="3" stroke-linecap="round" stroke-linejoin="round" stroke-miterlimit="10" x1="23.881" y1="1.5" x2="11.854" y2="27.644"/>
<line fill="none" stroke="#002664" stroke-width="3" stroke-linecap="round" stroke-linejoin="round" stroke-miterlimit="10" x1="23.881" y1="1.5" x2="28.405" y2="1.505"/>
<line fill="none" stroke="#002664" stroke-width="3" stroke-linecap="round" stroke-linejoin="round" stroke-miterlimit="10" x1="38.34" y1="8.149" x2="45.676" y2="8.157"/>
<path fill-rule="evenodd" clip-rule="evenodd" fill="#002664" d="M46.788,25.912l-14.889-0.018l-0.022,19.866l-1.529-0.001
	l0.022-19.866l-4.239-0.005c-1.035-0.001-1.874,0.836-1.875,1.87l-0.019,16.466c-0.002,1.034,0.492,1.528,1.526,1.53l14.89,0.016
	l0.022-19.865l1.528,0.002l-0.022,19.865l4.585,0.006c1.034,0.001,1.528-0.492,1.53-1.526l0.018-16.81
	C48.317,26.408,47.823,25.913,46.788,25.912"/>
<line fill="none" stroke="#002664" stroke-width="3" stroke-linecap="round" stroke-linejoin="round" stroke-miterlimit="10" x1="41.895" y1="8.331" x2="45.13" y2="17.407"/>
</svg>
