<?xml version="1.0" encoding="UTF-8" standalone="no"?>
<svg
   width="199"
   height="44"
   viewBox="0 0 199 44"
   version="1.1"
   id="svg118"
   sodipodi:docname="logo-desktop.3b00ceed.svg"
   inkscape:version="1.2.2 (732a01da63, 2022-12-09)"
   xmlns:inkscape="http://www.inkscape.org/namespaces/inkscape"
   xmlns:sodipodi="http://sodipodi.sourceforge.net/DTD/sodipodi-0.dtd"
   xmlns="http://www.w3.org/2000/svg"
   xmlns:svg="http://www.w3.org/2000/svg">
  <defs
     id="defs122" />
  <sodipodi:namedview
     id="namedview120"
     pagecolor="#ffffff"
     bordercolor="#000000"
     borderopacity="0.25"
     inkscape:showpageshadow="2"
     inkscape:pageopacity="0.0"
     inkscape:pagecheckerboard="0"
     inkscape:deskcolor="#d1d1d1"
     showgrid="false"
     inkscape:zoom="7.4623116"
     inkscape:cx="121.4101"
     inkscape:cy="22.111111"
     inkscape:window-width="2560"
     inkscape:window-height="1369"
     inkscape:window-x="-8"
     inkscape:window-y="-8"
     inkscape:window-maximized="1"
     inkscape:current-layer="svg118" />
  <g
     id="g4">
    <path
       fill="#009ed9"
       d="m 101.36,10.19 h 3.685 v 9.026 l 3.321,-4.456 h 3.912 l -4.367,5.547 5.095,6.457 h -4.526 l -3.435,-4.957 v 4.957 h -3.685 z"
       id="path2" />
  </g>
  <g
     id="g8">
    <path
       fill="#009ed9"
       d="m 191.11,26.764 h -1.32 L 185.65,14.76 h 3.935 l 2.07,7.116 0.5,1.955 0.592,-1.955 2.388,-7.116 h 3.708 l -5.869,16.824 h -3.503 z"
       id="path6" />
  </g>
  <g
     id="g12">
    <path
       fill="#009ed9"
       d="m 73.192,8.383 -1.295,-2.323 -2.932,1.32 -2.91,-1.32 -1.272,2.323 4.182,2.14 z M 60.76,19.108 c 0,5.094 2.934,7.89 8.621,7.89 2.001,0 3.298,-0.204 4.776,-0.75 l -0.773,-2.82 c -1.205,0.319 -2.093,0.433 -3.617,0.433 -3.139,0 -5.209,-1.728 -5.209,-4.98 0,-3.251 1.957,-4.82 4.777,-4.775 1.706,0 2.32,0.16 3.799,0.569 l 0.978,-2.706 c -1.16,-0.523 -2.525,-0.955 -4.822,-0.955 -5.641,0 -8.53,2.683 -8.53,8.094 z"
       id="path10" />
  </g>
  <g
     id="g16">
    <path
       fill="#009ed9"
       d="m 79.246,19.537 c 0.069,-1.569 0.864,-2.455 2.115,-2.455 1.206,0 1.843,1 1.797,2.455 z m -3.776,1.41 c 0,4.774 2.57,6.092 6.506,6.092 1.455,0 3.184,-0.204 4.503,-0.613 l -0.546,-2.774 c -1.25,0.205 -2.615,0.477 -3.412,0.477 -1.91,0 -3.411,-0.363 -3.389,-2.25 h 7.78 V 20.56 c 0,-3.615 -1.457,-6.07 -5.232,-6.07 -3.617,0 -6.21,1.569 -6.21,6.457 z"
       id="path14" />
  </g>
  <g
     id="g20">
    <path
       fill="#009ed9"
       d="m 88.96,26.52 0.386,-2.752 c 1.57,0.205 2.821,0.319 3.617,0.319 1.865,0 2.07,-0.478 2.07,-0.841 0,-1.296 -6.027,-0.682 -6.027,-4.98 0,-2.591 2.433,-3.796 5.049,-3.796 1.455,0 2.775,0.25 4.026,0.682 l -0.614,2.66 c -1.16,-0.273 -2.07,-0.455 -3.299,-0.455 -1.25,0 -1.5,0.478 -1.5,0.728 0,1.364 6.004,1 6.004,5.024 0,3.16 -3.32,3.933 -5.345,3.933 -1.728,0 -3.139,-0.159 -4.367,-0.523 z"
       id="path18" />
  </g>
  <g
     id="g24">
    <path
       fill="#009ed9"
       d="m 117.506,19.524 c 0.045,-1.562 0.864,-2.445 2.115,-2.445 1.183,0 1.82,0.996 1.774,2.445 z m 0.41,-5.992 5.368,-2.273 -1.184,-2.569 -5.232,2.66 z m -4.186,7.412 c 0,4.774 2.547,6.093 6.506,6.093 1.455,0 3.161,-0.205 4.503,-0.614 l -0.546,-2.774 c -1.25,0.205 -2.615,0.478 -3.434,0.478 -1.911,0 -3.39,-0.364 -3.367,-2.25 h 7.78 v -1.32 c 0,-3.614 -1.457,-6.07 -5.232,-6.07 -3.64,0 -6.21,1.569 -6.21,6.457 z"
       id="path22" />
  </g>
  <g
     id="g28">
    <path
       fill="#009ed9"
       d="m 141.82,23.512 c -0.546,0.228 -1.342,0.387 -2.001,0.387 -1.297,0 -2.457,-0.66 -2.457,-3.274 0,-2.069 0.842,-3.274 2.934,-3.274 0.66,0 1.137,0.091 1.524,0.16 z m -8.12,-2.955 c 0,5.206 2.98,6.388 5.39,6.388 1.525,0 2.184,-0.613 2.73,-1.045 v 0.864 h 3.663 V 10.19 h -3.663 v 4.41 c -0.387,-0.045 -0.932,-0.136 -1.592,-0.136 -3.64,0 -6.528,2 -6.528,6.093 z"
       id="path26" />
  </g>
  <g
     id="g32">
    <path
       fill="#009ed9"
       d="m 148.69,14.767 h 3.662 v 1.615 c 0.591,-0.773 1.706,-1.842 3.093,-1.842 0.66,0 1.138,0.045 1.66,0.205 l -0.5,3 c -0.705,-0.136 -0.933,-0.136 -1.592,-0.136 -1.091,0 -2.183,0.5 -2.661,1.023 v 8.14 h -3.662 z"
       id="path30" />
  </g>
  <g
     id="g36">
    <path
       fill="#009ed9"
       d="m 164.73,23.718 c -0.773,0.204 -1.615,0.409 -2.32,0.409 -0.66,0 -1.341,-0.319 -1.341,-1 0,-0.887 0.795,-1.251 1.865,-1.274 l 1.796,-0.045 z m -3.138,-10.186 5.39,-2.273 -1.182,-2.569 -5.231,2.66 z m -4.072,9.8 c 0,2.386 1.479,3.637 4.117,3.637 1.32,0 2.57,-0.682 3.457,-1.364 0.342,1.023 1.865,1.273 3.321,1.273 0.273,0 0.569,0 0.865,-0.023 l 0.113,-2.774 c -0.682,-0.022 -1.069,-0.113 -1.069,-0.5 V 18.24 c 0,-2.706 -1.5,-3.752 -5.209,-3.752 -1.91,0 -3.503,0.432 -4.844,0.955 l 0.705,2.66 c 1.137,-0.25 2.411,-0.523 3.594,-0.523 1.478,0 2.16,0.319 2.16,1.364 v 0.75 h -2.07 c -2.388,0 -5.14,0.614 -5.14,3.638 z"
       id="path34" />
  </g>
  <g
     id="g40">
    <path
       fill="#009ed9"
       d="m 172.39,10.19 h 3.662 v 5.797 c 0.728,-0.568 2.32,-1.568 3.913,-1.568 3.753,0 4.025,2.091 4.025,4.82 v 7.525 h -3.661 v -7.23 c 0,-1.637 -0.364,-1.932 -1.593,-1.932 -1.091,0 -2.092,0.363 -2.684,0.659 v 8.503 h -3.662 z"
       id="path38" />
  </g>
  <g
     id="g44">
    <path
       fill="#002964"
       d="m 35.642,9.896 h 6.164 c 1.546,0 1.524,0.841 1.524,2.069 -0.023,1.136 -0.205,2.796 -0.683,5.115 -0.5,2.273 -0.978,3.933 -1.456,5.115 -0.363,0.887 -0.705,1.5 -1,1.91 -0.455,0.591 -0.705,0.727 -1.001,0.841 -0.296,0.091 -0.75,0.137 -1.456,0.137 H 11.667 c -1.5,0 -1.796,-0.364 -1.796,-1.433 0,-0.682 0.113,-1.66 0.386,-2.955 0.296,-1.387 0.478,-1.705 0.842,-2.456 0.546,-1.114 1.023,-1.523 1.455,-1.773 0.455,-0.227 1.024,-0.341 1.866,-0.341 h 8.097 l 0.842,-3.978 h -8.94 c -0.773,0 -1.592,0.068 -2.456,0.318 a 6.89,6.89 0 0 0 -1.91,0.886 C 9.12,14.011 8.323,14.943 7.71,16.125 7.096,17.33 6.754,18.057 6.368,19.876 6.049,21.331 5.89,22.559 5.89,23.65 c 0,0.91 0.114,1.728 0.41,2.501 a 4.642,4.642 0 0 0 1,1.546 c 0.66,0.637 1.456,0.978 2.207,1.137 0.727,0.182 1.455,0.204 2.16,0.227 h 26.067 c 0.66,-0.023 1.479,-0.023 2.388,-0.25 a 5.469,5.469 0 0 0 2.07,-1.068 c 0.978,-0.819 1.774,-1.956 2.457,-3.524 0.682,-1.569 1.296,-3.592 1.888,-6.32 0.523,-2.479 0.75,-4.388 0.75,-5.934 0,-1.137 -0.113,-2.092 -0.41,-2.956 a 5.012,5.012 0 0 0 -1,-1.682 4.232,4.232 0 0 0 -2.229,-1.228 C 42.92,5.94 42.306,5.94 41.806,5.94 H 32.434 L 28.84,22.832 h 4.05 z"
       id="path42" />
  </g>
  <g
     id="g48">
    <path
       fill="#002964"
       d="M 51.564,5.692 A 8.715,8.715 0 0 0 49.175,2.668 C 47.742,1.531 46.15,0.986 44.717,0.713 43.284,0.463 41.965,0.44 41.01,0.44 H 28.113 l -4.777,22.394 h 4.071 L 31.32,4.419 h 9.69 c 0.796,0 1.728,0 2.638,0.159 a 7.572,7.572 0 0 1 1.933,0.523 c 0.91,0.409 1.638,0.977 2.23,2 0.59,1 1.069,2.547 1.069,4.956 0,1.387 -0.16,3.07 -0.546,5.07 -0.683,3.592 -1.524,6.23 -2.434,8.14 -0.683,1.432 -1.388,2.432 -2.093,3.137 -1.046,1.068 -2.07,1.568 -3.298,1.864 -1.205,0.273 -2.593,0.318 -4.117,0.295 H 10.94 C 9.256,30.586 7.55,30.131 6.39,29.153 5.799,28.653 5.299,28.063 4.935,27.199 4.571,26.358 4.321,25.266 4.321,23.834 c 0,-0.91 0.09,-1.978 0.34,-3.16 0.501,-2.57 1.002,-3.797 1.752,-5.252 1.115,-2.205 2.343,-3.296 3.571,-3.956 1.228,-0.636 2.57,-0.84 3.958,-0.84 h 9.735 l 0.842,-3.98 H 13.942 c -1.16,0 -2.457,0.114 -3.799,0.5 -2.001,0.57 -4.071,1.82 -5.732,4.002 -1.683,2.183 -2.82,4.502 -3.662,8.753 -0.273,1.409 -0.409,2.728 -0.409,3.933 0,1.887 0.341,3.547 0.955,4.956 a 9.008,9.008 0 0 0 4.254,4.524 c 1.751,0.887 3.64,1.228 5.39,1.228 h 25.453 c 1.388,0 2.866,0 4.458,-0.296 1.16,-0.227 2.389,-0.613 3.549,-1.295 1.774,-1.024 3.366,-2.706 4.662,-5.138 1.32,-2.433 2.366,-5.639 3.185,-9.958 0.41,-2.183 0.614,-4.092 0.614,-5.798 0,-2.591 -0.455,-4.683 -1.296,-6.365 z"
       id="path46" />
  </g>
  <g
     id="g52">
    <path
       fill="#002964"
       d="M 26.183,0.44 H 8.692 L 7.85,4.419 h 13.602 c 4.185,0 4.731,-3.979 4.731,-3.979 z"
       id="path50" />
  </g>
</svg>
