<?xml version="1.0" encoding="utf-8"?>
<!-- Generator: Adobe Illustrator 15.0.2, SVG Export Plug-In  -->
<!DOCTYPE svg PUBLIC "-//W3C//DTD SVG 1.1//EN" "http://www.w3.org/Graphics/SVG/1.1/DTD/svg11.dtd" [
	<!ENTITY ns_flows "http://ns.adobe.com/Flows/1.0/">
]>
<svg version="1.1"
	 xmlns="http://www.w3.org/2000/svg" xmlns:xlink="http://www.w3.org/1999/xlink" xmlns:a="http://ns.adobe.com/AdobeSVGViewerExtensions/3.0/"
	 x="0px" y="0px" width="89px" height="89px" viewBox="0 0 89 89" enable-background="new 0 0 89 89" xml:space="preserve">
<defs>
</defs>
<circle fill="none" stroke="#778899" stroke-width="3" stroke-linecap="round" stroke-linejoin="round" stroke-miterlimit="10" cx="44.36" cy="44.36" r="42.86"/>
<path fill="none" stroke="#049EDA" stroke-width="3" stroke-linecap="round" stroke-linejoin="round" stroke-miterlimit="10" d="
	M22.268,40.887c1.669-10.699,10.924-18.886,22.092-18.886c8.634,0,16.123,4.892,19.85,12.055"/>
<path fill="none" stroke="#049EDA" stroke-width="3" stroke-linecap="round" stroke-linejoin="round" stroke-miterlimit="10" d="
	M66.614,46.551c-1.102,11.32-10.645,20.17-22.255,20.17c-9.18,0-17.066-5.532-20.512-13.444"/>
<path fill="none" stroke="#778899" stroke-width="3" stroke-linecap="round" stroke-linejoin="round" stroke-miterlimit="10" d="
	M21.189,16.957c6.252-5.291,14.338-8.481,23.17-8.481"/>
<path fill="none" stroke="#778899" stroke-width="3" stroke-linecap="round" stroke-linejoin="round" stroke-miterlimit="10" d="
	M67.359,72.476c-6.252,5.291-14.338,8.481-23.17,8.481"/>
<line fill="none" stroke="#049EDA" stroke-width="3" stroke-linecap="round" stroke-linejoin="round" stroke-miterlimit="10" x1="16.439" y1="34.058" x2="22.154" y2="41.831"/>
<line fill="none" stroke="#049EDA" stroke-width="3" stroke-linecap="round" stroke-linejoin="round" stroke-miterlimit="10" x1="22.154" y1="41.832" x2="29.929" y2="36.117"/>
<line fill="none" stroke="#049EDA" stroke-width="3" stroke-linecap="round" stroke-linejoin="round" stroke-miterlimit="10" x1="72.327" y1="53.277" x2="66.612" y2="45.503"/>
<line fill="none" stroke="#049EDA" stroke-width="3" stroke-linecap="round" stroke-linejoin="round" stroke-miterlimit="10" x1="66.613" y1="45.503" x2="58.839" y2="51.218"/>
</svg>
