<?xml version="1.0" encoding="UTF-8"?>
<!DOCTYPE svg PUBLIC "-//W3C//DTD SVG 1.1//EN" "http://www.w3.org/Graphics/SVG/1.1/DTD/svg11.dtd">
<!-- Creator: CorelDRAW X7 -->
<svg xmlns="http://www.w3.org/2000/svg" xml:space="preserve" width="23px" height="23px" version="1.1" style="shape-rendering:geometricPrecision; text-rendering:geometricPrecision; image-rendering:optimizeQuality; fill-rule:evenodd; clip-rule:evenodd"
viewBox="0 0 23 23"
 xmlns:xlink="http://www.w3.org/1999/xlink">
 <defs>
  <style type="text/css">
   <![CDATA[
    .fil0 {fill:#778799}
   ]]>
  </style>
 </defs>
 <g id="Vrstva_x0020_1">
  <metadata id="CorelCorpID_0Corel-Layer"/>
  <path class="fil0" d="M23 22c0,0 -1,1 -1,1l-6 0 0 -9 3 0 0 -3 -3 0 0 -2c0,-1 1,-2 2,-2l1 0 0 -3c0,0 -1,0 -2,0 -3,0 -5,2 -5,5l0 2 -3 0 0 3 3 0 0 9 -11 0c0,0 -1,-1 -1,-1l0 -21c0,0 1,-1 1,-1l21 0c0,0 1,1 1,1l0 21z"/>
 </g>
</svg>
