<?xml version="1.0" encoding="UTF-8"?>
<!DOCTYPE svg PUBLIC "-//W3C//DTD SVG 1.1//EN" "http://www.w3.org/Graphics/SVG/1.1/DTD/svg11.dtd">
<!-- Creator: CorelDRAW X7 -->
<svg xmlns="http://www.w3.org/2000/svg" xml:space="preserve" width="23px" height="25px" version="1.1" style="shape-rendering:geometricPrecision; text-rendering:geometricPrecision; image-rendering:optimizeQuality; fill-rule:evenodd; clip-rule:evenodd"
viewBox="0 0 23 25"
 xmlns:xlink="http://www.w3.org/1999/xlink">
 <defs>
  <style type="text/css">
   <![CDATA[
    .fil0 {fill:#778698;fill-rule:nonzero}
   ]]>
  </style>
 </defs>
 <g id="Vrstva_x0020_1">
  <metadata id="CorelCorpID_0Corel-Layer"/>
  <g id="_880832096">
   <path class="fil0" d="M2 2c0,0 0,0 0,0l0 21c0,0 0,0 0,0l10 -10 -10 -11z"/>
   <path class="fil0" d="M13 12l3 -3 -13 -7c0,0 0,-1 0,0l10 10z"/>
   <path class="fil0" d="M13 13l-10 10c0,1 0,0 0,0l13 -7 -3 -3z"/>
   <path class="fil0" d="M21 12l-5 -3 -3 4 3 3 5 -3c0,0 0,-1 0,-1z"/>
  </g>
 </g>
</svg>
