<?xml version="1.0" encoding="UTF-8"?>
<!DOCTYPE svg PUBLIC "-//W3C//DTD SVG 1.1//EN" "http://www.w3.org/Graphics/SVG/1.1/DTD/svg11.dtd">
<!-- Creator: CorelDRAW X7 -->
<svg xmlns="http://www.w3.org/2000/svg" xml:space="preserve" width="100px" height="100px" version="1.1" style="shape-rendering:geometricPrecision; text-rendering:geometricPrecision; image-rendering:optimizeQuality; fill-rule:evenodd; clip-rule:evenodd"
viewBox="0 0 100 100"
 xmlns:xlink="http://www.w3.org/1999/xlink">
 <defs>
  <style type="text/css">
   <![CDATA[
    .str1 {stroke:#009ED9;stroke-width:2.99992;stroke-linecap:round;stroke-linejoin:round}
    .str0 {stroke:#778799;stroke-width:2.99992;stroke-linecap:round;stroke-linejoin:round}
    .fil1 {fill:none}
    .fil0 {fill:none;fill-rule:nonzero}
   ]]>
  </style>
 </defs>
 <g id="Vrstva_x0020_1">
  <metadata id="CorelCorpID_0Corel-Layer"/>
  <g id="_909874800">
   <polyline class="fil0 str0" points="67,45 44,22 2,64 13,75 14,74 "/>
   <path class="fil0 str0" d="M14 74c4,-3 9,-3 12,0 3,3 3,8 0,12"/>
   <polyline class="fil0 str0" points="26,86 25,87 36,98 78,56 67,45 "/>
   <line class="fil0 str0" x1="87" y1="25" x2="86" y2= "26" />
   <path class="fil0 str0" d="M86 26c-4,3 -9,3 -12,0 -3,-3 -3,-8 0,-12"/>
   <polyline class="fil0 str0" points="74,14 75,13 64,2 44,22 78,56 98,36 87,25 "/>
   <line class="fil0 str0" x1="29" y1="59" x2="45" y2= "44" />
   <line class="fil0 str0" x1="35" y1="65" x2="50" y2= "49" />
   <line class="fil0 str0" x1="41" y1="71" x2="56" y2= "55" />
   <g>
    <path class="fil1 str1" d="M12 44c-3,0 -5,-3 -5,-5"/>
    <line class="fil1 str1" x1="7" y1="39" x2="7" y2= "13" />
    <path class="fil1 str1" d="M7 13c0,-3 2,-5 5,-5"/>
    <line class="fil1 str1" x1="12" y1="8" x2="38" y2= "8" />
    <path class="fil1 str1" d="M38 8c2,0 5,2 5,5"/>
    <g>
     <polygon class="fil1 str1" points="18,19 18,14 23,14 23,19 "/>
     <polygon class="fil1 str1" points="13,24 13,19 18,19 18,24 "/>
    </g>
    <polyline class="fil1 str1" points="13,38 13,28 23,28 "/>
    <polyline class="fil1 str1" points="27,24 27,14 37,14 "/>
   </g>
  </g>
 </g>
</svg>
