<?xml version="1.0" encoding="UTF-8"?>
<!DOCTYPE svg PUBLIC "-//W3C//DTD SVG 1.1//EN" "http://www.w3.org/Graphics/SVG/1.1/DTD/svg11.dtd">
<!-- Creator: CorelDRAW X7 -->
<svg xmlns="http://www.w3.org/2000/svg" xml:space="preserve" width="100px" height="100px" version="1.1" style="shape-rendering:geometricPrecision; text-rendering:geometricPrecision; image-rendering:optimizeQuality; fill-rule:evenodd; clip-rule:evenodd"
viewBox="0 0 100 100"
 xmlns:xlink="http://www.w3.org/1999/xlink">
 <defs>
  <style type="text/css">
   <![CDATA[
    .str1 {stroke:#049EDA;stroke-width:2.99992;stroke-linecap:round;stroke-linejoin:round}
    .str0 {stroke:#778799;stroke-width:2.99992;stroke-linecap:round;stroke-linejoin:round}
    .fil0 {fill:none;fill-rule:nonzero}
   ]]>
  </style>
 </defs>
 <g id="Vrstva_x0020_1">
  <metadata id="CorelCorpID_0Corel-Layer"/>
  <g id="_913799472">
   <line class="fil0 str0" x1="61" y1="79" x2="57" y2= "79" />
   <line class="fil0 str0" x1="65" y1="73" x2="53" y2= "73" />
   <polyline class="fil0 str1" points="43,10 21,2 7,46 "/>
   <line class="fil0 str0" x1="83" y1="33" x2="97" y2= "47" />
   <path class="fil0 str0" d="M97 47c1,1 1,3 0,4"/>
   <line class="fil0 str0" x1="97" y1="51" x2="51" y2= "97" />
   <path class="fil0 str0" d="M51 97c-1,1 -3,1 -5,0"/>
   <line class="fil0 str0" x1="46" y1="97" x2="3" y2= "54" />
   <path class="fil0 str0" d="M3 54c-1,-1 -1,-3 0,-5"/>
   <line class="fil0 str0" x1="3" y1="49" x2="49" y2= "4" />
   <path class="fil0 str0" d="M49 4c1,-2 3,-2 5,0"/>
   <line class="fil0 str0" x1="54" y1="4" x2="68" y2= "18" />
   <polygon class="fil0 str1" points="86,28 67,46 54,33 73,15 "/>
   <line class="fil0 str0" x1="11" y1="42" x2="59" y2= "90" />
   <line class="fil0 str1" x1="61" y1="39" x2="67" y2= "34" />
  </g>
 </g>
</svg>
