<?xml version="1.0" encoding="utf-8"?>
<!-- Generator: Adobe Illustrator 15.0.2, SVG Export Plug-In  -->
<!DOCTYPE svg PUBLIC "-//W3C//DTD SVG 1.1//EN" "http://www.w3.org/Graphics/SVG/1.1/DTD/svg11.dtd" [
	<!ENTITY ns_flows "http://ns.adobe.com/Flows/1.0/">
]>
<svg version="1.1"
	 xmlns="http://www.w3.org/2000/svg" xmlns:xlink="http://www.w3.org/1999/xlink" xmlns:a="http://ns.adobe.com/AdobeSVGViewerExtensions/3.0/"
	 x="0px" y="0px" width="35px" height="47px" viewBox="0 0 35 47" enable-background="new 0 0 35 47" xml:space="preserve">
<defs>
</defs>
<path fill-rule="evenodd" clip-rule="evenodd" fill="none" stroke="#212E60" stroke-width="3" stroke-linecap="round" stroke-linejoin="round" stroke-miterlimit="3" d="
	M13.5,3.199C12.4,2.066,11.05,1.5,9.45,1.5s-2.967,0.566-4.1,1.699s-1.7,2.5-1.7,4.1c0,1.567,0.567,2.918,1.7,4.051
	s2.5,1.699,4.1,1.699s2.95-0.566,4.05-1.699c1.133-1.133,1.7-2.483,1.7-4.051C15.2,5.699,14.633,4.332,13.5,3.199z M21.65,10
	c0,1.6,0.567,2.967,1.7,4.1s2.5,1.699,4.1,1.699s2.95-0.566,4.05-1.699c1.133-1.133,1.7-2.5,1.7-4.1c0-1.601-0.567-2.951-1.7-4.051
	c-1.1-1.166-2.45-1.75-4.05-1.75s-2.967,0.584-4.1,1.75C22.217,7.082,21.65,8.433,21.65,10z M1.5,36.549H6V45.5h6.9v-8.951h4.5
	L13.3,17.25v-0.051H5.6L1.5,36.5V36.549z M21.25,19.899h12.4v16.649H30.9v8.9H24v-8.9h-2.8l0.05-0.049V19.899z"/>
</svg>
