<?xml version="1.0" encoding="utf-8"?>
<!-- Generator: Adobe Illustrator 15.0.2, SVG Export Plug-In  -->
<!DOCTYPE svg PUBLIC "-//W3C//DTD SVG 1.1//EN" "http://www.w3.org/Graphics/SVG/1.1/DTD/svg11.dtd" [
	<!ENTITY ns_flows "http://ns.adobe.com/Flows/1.0/">
]>
<svg version="1.1"
	 xmlns="http://www.w3.org/2000/svg" xmlns:xlink="http://www.w3.org/1999/xlink" xmlns:a="http://ns.adobe.com/AdobeSVGViewerExtensions/3.0/"
	 x="0px" y="0px" width="22px" height="47px" viewBox="0 0 22 47" enable-background="new 0 0 22 47" xml:space="preserve">
<defs>
</defs>
<path fill-rule="evenodd" clip-rule="evenodd" fill="none" stroke="#212E60" stroke-width="3" stroke-linecap="round" stroke-linejoin="round" stroke-miterlimit="3" d="
	M19.435,2.757c0.803,0.839,1.205,1.833,1.205,2.986c0,1.187-0.402,2.199-1.205,3.037c-0.838,0.804-1.833,1.205-2.986,1.205
	c-1.153,0-2.148-0.401-2.986-1.205c-0.838-0.838-1.257-1.851-1.257-3.037c0-1.153,0.419-2.147,1.257-2.986
	C14.301,1.919,15.296,1.5,16.449,1.5C17.601,1.5,18.596,1.919,19.435,2.757z M16.658,27.48c-2.025-7.997-3.16-12.484-3.405-13.462
	c-0.279-1.083-0.908-1.886-1.885-2.409c-0.698-0.384-1.484-0.559-2.357-0.524c-1.746,0.943-3.265,2.235-4.557,3.877
	c-2.13,2.828-3.108,6.006-2.933,9.532 M1.572,24.862c-0.14,0.662-0.052,1.309,0.262,1.938c0.279,0.664,0.769,1.152,1.467,1.467
	c3.353,1.292,5.377,2.968,6.076,5.028c0.698,2.13-1.484,6.198-6.547,12.205"/>
</svg>
