<?xml version="1.0" encoding="utf-8"?>
<!-- Generator: Adobe Illustrator 15.0.2, SVG Export Plug-In  -->
<!DOCTYPE svg PUBLIC "-//W3C//DTD SVG 1.1//EN" "http://www.w3.org/Graphics/SVG/1.1/DTD/svg11.dtd" [
	<!ENTITY ns_flows "http://ns.adobe.com/Flows/1.0/">
]>
<svg version="1.1"
	 xmlns="http://www.w3.org/2000/svg" xmlns:xlink="http://www.w3.org/1999/xlink" xmlns:a="http://ns.adobe.com/AdobeSVGViewerExtensions/3.0/"
	 x="0px" y="0px" width="80px" height="101px" viewBox="0 0 80 101" enable-background="new 0 0 80 101" xml:space="preserve">
<defs>
</defs>
<path fill-rule="evenodd" clip-rule="evenodd" fill="none" stroke="#778696" stroke-width="3" stroke-linecap="round" stroke-linejoin="round" stroke-miterlimit="3" d="
	M70,22.122c-3-1.799-4.518-4.433-4.551-7.899c-0.066-3.5-1.832-5.267-5.299-5.3c-3.5-0.066-6.15-1.584-7.951-4.551
	c-1.766-3-4.166-3.649-7.199-1.949c-3.033,1.699-6.066,1.699-9.1,0c-3.033-1.7-5.451-1.051-7.25,1.949
	c-1.768,2.967-4.4,4.484-7.9,4.551c-3.467,0.033-5.233,1.8-5.301,5.3c-0.033,3.5-1.549,6.134-4.549,7.899
	c-3,1.801-3.65,4.217-1.951,7.25c1.734,3.033,1.734,6.084,0,9.15c-1.699,3.033-1.049,5.434,1.951,7.2c3,1.8,4.516,4.433,4.549,7.899
	c0.067,3.5,1.834,5.268,5.301,5.301c3.5,0.066,6.133,1.6,7.9,4.6c1.799,3,4.217,3.634,7.25,1.9c3.033-1.7,6.066-1.7,9.1,0
	c3.033,1.733,5.434,1.1,7.199-1.9c1.801-3,4.451-4.533,7.951-4.6c3.467-0.033,5.232-1.801,5.299-5.301
	c0.033-3.467,1.551-6.1,4.551-7.899c3-1.767,3.633-4.167,1.9-7.2c-1.701-3.066-1.701-6.117,0-9.15
	C73.633,26.339,73,23.923,70,22.122z M78.4,90.673l-14.5-27.05c-2.434,0.267-4.351,0.616-5.75,1.05c-1.134,0.399-2,0.883-2.601,1.45
	c-0.333,0.333-0.717,0.866-1.149,1.6c-0.367,0.7-0.768,1.233-1.201,1.6c-1.133,1.233-2.516,2-4.149,2.301
	c-0.5,0.1-0.983,0.133-1.45,0.1l-0.6-0.05l16.15,27.8l3.949-10.3L78.4,90.673z M28.85,70.322c-0.367-0.3-0.717-0.683-1.05-1.149
	c-0.134-0.167-0.45-0.601-0.95-1.3c-0.8-1.134-1.566-1.95-2.3-2.45c-1.167-0.767-2.7-1.167-4.601-1.2c-1.5,0-2.633-0.283-3.399-0.85
	c-0.267-0.167-0.467-0.367-0.601-0.601l-0.1-0.25L1.5,90.673l11.449-1.3l6.4,9.55c2.167-4.601,4.367-9.184,6.6-13.75
	c4.301-9.033,6.5-13.584,6.601-13.65C31.05,71.489,29.816,71.089,28.85,70.322z"/>
<path fill-rule="evenodd" clip-rule="evenodd" fill="none" stroke="#29A7DF" stroke-width="3" stroke-linecap="round" stroke-linejoin="round" stroke-miterlimit="3" d="
	M40.8,15.673c5.101,0,9.45,1.8,13.05,5.4c3.6,3.6,5.4,7.949,5.4,13.049c0,5.101-1.801,9.451-5.4,13.051s-7.949,5.4-13.05,5.4
	c-5.067,0-9.399-1.801-13-5.4S22.4,39.223,22.4,34.122c0-5.1,1.799-9.449,5.399-13.049C31.4,17.473,35.732,15.673,40.8,15.673z
	 M35.4,33.522l6.899-6.9v15.451"/>
</svg>
